g Hex
v 0 0 0
v 0.5 0.8660254 0
v 1 0 0
v 0 0 0
v 1 0 0
v 0.5 -0.8660254 0
v 0 0 0
v 0.5 -0.8660254 0
v -0.5 -0.8660254 0
v 0 0 0
v -0.5 -0.8660254 0
v -1 0 0
v 0 0 0
v -1 0 0
v -0.5 0.8660254 0
v 0 0 0
v -0.5 0.8660254 0
v 0.5 0.8660254 0

vn 0 0 -0.9999999
vn 0 0 -0.9999999
vn 0 0 -0.9999999
vn 0 0 -0.9999999
vn 0 0 -0.9999999
vn 0 0 -0.9999999
vn 0 0 -0.9999999
vn 0 0 -0.9999999
vn 0 0 -0.9999999
vn 0 0 -0.9999999
vn 0 0 -0.9999999
vn 0 0 -0.9999999
vn 0 0 -0.9999999
vn 0 0 -0.9999999
vn 0 0 -0.9999999
vn 0 0 -0.9999999
vn 0 0 -0.9999999
vn 0 0 -0.9999999


usemtl Default-Material
usemap Default-Material
f 1/1/1 2/2/2 3/3/3
f 4/4/4 5/5/5 6/6/6
f 7/7/7 8/8/8 9/9/9
f 10/10/10 11/11/11 12/12/12
f 13/13/13 14/14/14 15/15/15
f 16/16/16 17/17/17 18/18/18
